<svg width="77" height="77" viewBox="0 0 77 77" fill="none" xmlns="http://www.w3.org/2000/svg">
<circle cx="38.5" cy="38.5" r="38.5" fill="#41B329"/>
<path d="M49.6612 58.0087L32.37 40.4399C31.9908 40.0566 31.7781 39.5392 31.7781 38.9999C31.7781 38.4607 31.9908 37.9433 32.37 37.5599L49.6575 19.9874C50.0365 19.6017 50.2489 19.0826 50.2489 18.5418C50.2489 18.001 50.0365 17.4819 49.6575 17.0962C49.4723 16.9063 49.251 16.7553 49.0066 16.6523C48.7622 16.5492 48.4996 16.4961 48.2344 16.4961C47.9691 16.4961 47.7065 16.5492 47.4621 16.6523C47.2177 16.7553 46.9964 16.9063 46.8112 17.0962L29.5237 34.6612C28.3878 35.8182 27.7513 37.3748 27.7513 38.9962C27.7513 40.6176 28.3878 42.1742 29.5237 43.3312L46.8112 60.8962C46.9965 61.0867 47.218 61.2381 47.4628 61.3415C47.7075 61.4449 47.9705 61.4982 48.2362 61.4982C48.502 61.4982 48.765 61.4449 49.0097 61.3415C49.2545 61.2381 49.476 61.0867 49.6612 60.8962C50.0403 60.5105 50.2527 59.9913 50.2527 59.4506C50.2527 58.9098 50.0403 58.3907 49.6612 58.0049" fill="white"/>
</svg>
