<svg width="77" height="77" viewBox="0 0 77 77" fill="none" xmlns="http://www.w3.org/2000/svg">
<circle cx="38.5" cy="38.5" r="38.5" fill="#41B329"/>
<path d="M28.3387 58.0087L45.63 40.4399C46.0092 40.0566 46.2219 39.5392 46.2219 38.9999C46.2219 38.4607 46.0092 37.9433 45.63 37.5599L28.3425 19.9874C27.9635 19.6017 27.7511 19.0826 27.7511 18.5418C27.7511 18.001 27.9635 17.4819 28.3425 17.0962C28.5276 16.9063 28.749 16.7553 28.9934 16.6523C29.2378 16.5492 29.5004 16.4961 29.7656 16.4961C30.0309 16.4961 30.2934 16.5492 30.5378 16.6523C30.7823 16.7553 31.0036 16.9063 31.1887 17.0962L48.4762 34.6612C49.6122 35.8182 50.2487 37.3748 50.2487 38.9962C50.2487 40.6176 49.6122 42.1742 48.4762 43.3312L31.1887 60.8962C31.0035 61.0867 30.782 61.2381 30.5372 61.3415C30.2925 61.4449 30.0294 61.4982 29.7637 61.4982C29.498 61.4982 29.235 61.4449 28.9903 61.3415C28.7455 61.2381 28.524 61.0867 28.3387 60.8962C27.9597 60.5105 27.7473 59.9913 27.7473 59.4506C27.7473 58.9098 27.9597 58.3907 28.3387 58.0049" fill="white"/>
</svg>
